<svg width="17" height="16" viewBox="0 0 17 16" fill="none" xmlns="http://www.w3.org/2000/svg">
<g clip-path="url(#clip0_227:934)">
<path
      d="M8.08332 14.6666C11.7652 14.6666 14.75 11.6818 14.75 7.99992C14.75 4.31802 11.7652 1.33325 8.08332 1.33325C4.40142 1.33325 1.41666 4.31802 1.41666 7.99992C1.41666 11.6818 4.40142 14.6666 8.08332 14.6666Z"
      stroke="#726FB7"
      stroke-linecap="round"
      stroke-linejoin="round"
    />
<path
      d="M6.14328 5.99989C6.30002 5.55434 6.60938 5.17863 7.01658 4.93931C7.42378 4.7 7.90254 4.61252 8.36806 4.69237C8.83359 4.77222 9.25582 5.01424 9.56 5.37558C9.86417 5.73691 10.0307 6.19424 10.0299 6.66656C10.0299 7.99989 8.02995 8.66656 8.02995 8.66656"
      stroke="#726FB7"
      stroke-linecap="round"
      stroke-linejoin="round"
    />
<path
      d="M8.08331 11.3333H8.08998"
      stroke="#726FB7"
      stroke-width="2"
      stroke-linecap="round"
      stroke-linejoin="round"
    />
</g>
<defs>
<clipPath id="clip0_227:934">
<rect width="16" height="16" fill="white" transform="translate(0.083313)" />
</clipPath>
</defs>
</svg>
