<svg width="16" height="16" fill="none" xmlns="http://www.w3.org/2000/svg"><path d="M15.067.457 9.062 4.9 10.18 2.28 15.067.457Z" fill="#E17726" stroke="#E17726" stroke-width=".25" stroke-linecap="round" stroke-linejoin="round"/><path d="m1.217.457 5.951 4.484-1.063-2.66L1.217.457ZM12.905 10.758l-1.598 2.44 3.421.942.98-3.329-2.803-.053ZM.582 10.811l.974 3.33 3.415-.942-1.592-2.44-2.797.052Z" fill="#E27625" stroke="#E27625" stroke-width=".25" stroke-linecap="round" stroke-linejoin="round"/><path d="m4.787 6.635-.95 1.434 3.385.154-.113-3.643-2.322 2.055ZM11.497 6.635 9.14 4.538l-.078 3.685 3.386-.154-.95-1.434ZM4.97 13.199l2.05-.99-1.764-1.374L4.97 13.2ZM9.265 12.21l2.042.989-.279-2.364-1.763 1.374Z" fill="#E27625" stroke="#E27625" stroke-width=".25" stroke-linecap="round" stroke-linejoin="round"/><path d="m11.307 13.198-2.043-.989.167 1.327-.018.563 1.894-.9ZM4.97 13.198l1.901.9-.012-.562.16-1.327-2.048.99Z" fill="#D5BFB2" stroke="#D5BFB2" stroke-width=".25" stroke-linecap="round" stroke-linejoin="round"/><path d="m6.907 9.958-1.699-.497 1.2-.551.499 1.048ZM9.377 9.958l.5-1.048 1.205.55-1.705.498Z" fill="#233447" stroke="#233447" stroke-width=".25" stroke-linecap="round" stroke-linejoin="round"/><path d="m4.97 13.199.298-2.44-1.889.052L4.971 13.2ZM11.016 10.758l.291 2.44 1.598-2.387-1.889-.053ZM12.448 8.069l-3.386.154.315 1.735.5-1.048 1.205.55 1.366-1.391ZM5.208 9.46l1.2-.55.499 1.048.314-1.735-3.385-.154L5.208 9.46Z" fill="#CC6228" stroke="#CC6228" stroke-width=".25" stroke-linecap="round" stroke-linejoin="round"/><path d="m3.836 8.069 1.42 2.766-.048-1.374-1.372-1.392ZM11.082 9.46l-.054 1.375 1.42-2.766-1.366 1.392ZM7.222 8.223l-.315 1.736.398 2.049.089-2.701-.172-1.084ZM9.062 8.223 8.896 9.3l.083 2.707.398-2.05-.315-1.735Z" fill="#E27525" stroke="#E27525" stroke-width=".25" stroke-linecap="round" stroke-linejoin="round"/><path d="m9.377 9.958-.398 2.05.285.202 1.764-1.375.054-1.374-1.705.497ZM5.208 9.46l.048 1.375 1.763 1.374.286-.201-.398-2.05-1.699-.497Z" fill="#F5841F" stroke="#F5841F" stroke-width=".25" stroke-linecap="round" stroke-linejoin="round"/><path d="m9.413 14.099.018-.563-.155-.13H7.008l-.149.13.012.563-1.9-.9.665.544 1.348.93h2.31l1.354-.93.66-.545-1.895.9Z" fill="#C0AC9D" stroke="#C0AC9D" stroke-width=".25" stroke-linecap="round" stroke-linejoin="round"/><path d="m9.264 12.21-.285-.202H7.305l-.285.202-.16 1.326.148-.13h2.268l.155.13-.167-1.326Z" fill="#161616" stroke="#161616" stroke-width=".25" stroke-linecap="round" stroke-linejoin="round"/><path d="m15.322 5.19.505-2.452-.76-2.281-5.803 4.295 2.233 1.883 3.154.918.695-.811-.303-.22.48-.438-.367-.284.48-.367-.314-.243ZM.457 2.738l.51 2.452-.326.243.487.367-.368.284.481.439-.303.219.695.811 3.154-.918L7.02 4.752 1.217.457l-.76 2.28Z" fill="#763E1A" stroke="#763E1A" stroke-width=".25" stroke-linecap="round" stroke-linejoin="round"/><path d="m14.651 7.553-3.153-.918.95 1.434-1.42 2.766 1.877-.024h2.803l-1.057-3.258ZM4.786 6.635l-3.153.918-1.051 3.258h2.797l1.877.024-1.42-2.766.95-1.434ZM9.062 8.223l.202-3.471.915-2.47H6.105l.915 2.47.201 3.47.078 1.09.006 2.696h1.674l.006-2.695.077-1.09Z" fill="#F5841F" stroke="#F5841F" stroke-width=".25" stroke-linecap="round" stroke-linejoin="round"/></svg>