<svg width="24" height="25" viewBox="0 0 24 25" fill="none" xmlns="http://www.w3.org/2000/svg">
<path d="M23 3.50005C22.0424 4.17552 20.9821 4.69216 19.86 5.03005C19.2577 4.33756 18.4573 3.84674 17.567 3.62397C16.6767 3.40121 15.7395 3.45724 14.8821 3.7845C14.0247 4.11176 13.2884 4.69445 12.773 5.45376C12.2575 6.21308 11.9877 7.11238 12 8.03005V9.03005C10.2426 9.07561 8.50127 8.68586 6.93101 7.89549C5.36074 7.10513 4.01032 5.93868 3 4.50005C3 4.50005 -1 13.5 8 17.5C5.94053 18.898 3.48716 19.599 1 19.5C10 24.5 21 19.5 21 8.00005C20.9991 7.7215 20.9723 7.44364 20.92 7.17005C21.9406 6.16354 22.6608 4.89276 23 3.50005Z" stroke="#7171B2" stroke-width="2" stroke-linecap="round" stroke-linejoin="round"/>
</svg>
